HIERARCHY
ROOT Hips
{
	OFFSET 0.000000 87.230942 0.000000
	CHANNELS 6 Xposition Yposition Zposition Xrotation Yrotation Zrotation
	JOINT Pelvis
	{
		OFFSET 0.000000 0.000000 0.000000
		CHANNELS 3 Xrotation Yrotation Zrotation
		JOINT LeftUpLeg
		{
			OFFSET 12.017000 -9.376404 -2.439400
			CHANNELS 3 Xrotation Yrotation Zrotation
			JOINT LeftLeg
			{
				OFFSET -0.007312 -32.846973 2.110600
				CHANNELS 3 Xrotation Yrotation Zrotation
				JOINT LeftFoot
				{
					OFFSET 0.007312 -32.065170 -0.570400
					CHANNELS 3 Xrotation Yrotation Zrotation
					JOINT LeftToeBase
					{
						OFFSET 0.728300 -11.045900 13.180700
						CHANNELS 3 Xrotation Yrotation Zrotation
						End Site
						{
							OFFSET 0.000000 17.212589 0.000000
						}
					}
				}
				JOINT LeftPantLeg
				{
					OFFSET 0.002788 -16.709013 -3.143600
					CHANNELS 3 Xrotation Yrotation Zrotation
					End Site
					{
						OFFSET -0.605125 24.528742 0.000000
					}
				}
			}
			JOINT Left_Butt
			{
				OFFSET -6.630234 1.326584 -3.183700
				CHANNELS 3 Xrotation Yrotation Zrotation
				End Site
				{
					OFFSET -0.498041 20.188049 0.000000
				}
			}
		}
		JOINT RightUpLeg
		{
			OFFSET -11.717000 -9.376404 -2.439400
			CHANNELS 3 Xrotation Yrotation Zrotation
			JOINT RightLeg
			{
				OFFSET -0.003241 -32.846912 2.110600
				CHANNELS 3 Xrotation Yrotation Zrotation
				JOINT RightFoot
				{
					OFFSET 0.003241 -32.065136 -0.570500
					CHANNELS 3 Xrotation Yrotation Zrotation
					JOINT RightToeBase
					{
						OFFSET -0.728300 -11.045901 13.180700
						CHANNELS 3 Xrotation Yrotation Zrotation
						End Site
						{
							OFFSET 0.000000 17.212593 0.000000
						}
					}
				}
				JOINT RightPantLeg
				{
					OFFSET 0.008142 -16.708982 -3.143700
					CHANNELS 3 Xrotation Yrotation Zrotation
					End Site
					{
						OFFSET 0.605088 24.528715 0.000000
					}
				}
			}
			JOINT Right_Butt
			{
				OFFSET 6.630732 1.326584 -3.183700
				CHANNELS 3 Xrotation Yrotation Zrotation
				End Site
				{
					OFFSET 0.498015 20.188240 0.000000
				}
			}
		}
	}
	JOINT Spine
	{
		OFFSET -0.062400 7.848404 3.918300
		CHANNELS 3 Xrotation Yrotation Zrotation
		JOINT Spine1
		{
			OFFSET -0.072800 11.422302 0.713400
			CHANNELS 3 Xrotation Yrotation Zrotation
			JOINT Spine2
			{
				OFFSET -0.083200 13.054001 -1.931600
				CHANNELS 3 Xrotation Yrotation Zrotation
				JOINT Neck
				{
					OFFSET -0.092200 14.121796 -5.138800
					CHANNELS 3 Xrotation Yrotation Zrotation
					JOINT Head
					{
						OFFSET 0.000200 10.447403 -0.842000
						CHANNELS 3 Xrotation Yrotation Zrotation
						JOINT Visor
						{
							OFFSET 0.457100 25.671204 16.550400
							CHANNELS 3 Xrotation Yrotation Zrotation
							End Site
							{
								OFFSET 0.000000 26.061493 0.000000
							}
						}
						JOINT HairMidA
						{
							OFFSET 0.459400 31.585403 8.437400
							CHANNELS 3 Xrotation Yrotation Zrotation
							End Site
							{
								OFFSET 0.000000 26.061493 0.000000
							}
						}
						JOINT HairMidB
						{
							OFFSET 0.464000 33.309204 -8.389700
							CHANNELS 3 Xrotation Yrotation Zrotation
							End Site
							{
								OFFSET 0.000000 26.061493 0.000000
							}
						}
						JOINT HairMidC
						{
							OFFSET 0.466600 27.991196 -17.375099
							CHANNELS 3 Xrotation Yrotation Zrotation
							End Site
							{
								OFFSET 0.000000 26.061493 0.000000
							}
						}
						JOINT HairMidD
						{
							OFFSET 0.467700 17.888092 -21.169500
							CHANNELS 3 Xrotation Yrotation Zrotation
							End Site
							{
								OFFSET 0.000000 26.061493 0.000000
							}
						}
						JOINT HairMidE
						{
							OFFSET 5.325700 3.514603 -14.369699
							CHANNELS 3 Xrotation Yrotation Zrotation
							End Site
							{
								OFFSET 0.000000 26.061493 0.000000
							}
						}
						JOINT HairMidF
						{
							OFFSET -4.394100 3.514603 -14.372400
							CHANNELS 3 Xrotation Yrotation Zrotation
							End Site
							{
								OFFSET 0.000000 26.061493 0.000000
							}
						}
						JOINT HairLeftA
						{
							OFFSET 15.319900 25.746506 2.623300
							CHANNELS 3 Xrotation Yrotation Zrotation
							End Site
							{
								OFFSET 0.000000 26.061493 0.000000
							}
						}
						JOINT HairLeftB
						{
							OFFSET 12.619500 29.289398 -8.731499
							CHANNELS 3 Xrotation Yrotation Zrotation
							End Site
							{
								OFFSET 0.000000 26.061493 0.000000
							}
						}
						JOINT HairLeftC
						{
							OFFSET 15.714800 15.959900 2.909800
							CHANNELS 3 Xrotation Yrotation Zrotation
							End Site
							{
								OFFSET 0.000000 26.061493 0.000000
							}
						}
						JOINT HairLeftD
						{
							OFFSET 16.101700 18.437408 -7.553200
							CHANNELS 3 Xrotation Yrotation Zrotation
							End Site
							{
								OFFSET 0.000000 26.061493 0.000000
							}
						}
						JOINT HairLeftE
						{
							OFFSET 9.731900 17.915009 -18.316799
							CHANNELS 3 Xrotation Yrotation Zrotation
							End Site
							{
								OFFSET 0.000000 26.061493 0.000000
							}
						}
						JOINT HairLeftF
						{
							OFFSET 11.204300 4.953598 -9.668100
							CHANNELS 3 Xrotation Yrotation Zrotation
							End Site
							{
								OFFSET 0.000000 26.061493 0.000000
							}
						}
						JOINT HairRightA
						{
							OFFSET -14.397900 25.746307 2.615100
							CHANNELS 3 Xrotation Yrotation Zrotation
							End Site
							{
								OFFSET 0.000000 26.061493 0.000000
							}
						}
						JOINT HairRightB
						{
							OFFSET -11.691200 29.289200 -8.738199
							CHANNELS 3 Xrotation Yrotation Zrotation
							End Site
							{
								OFFSET 0.000000 26.061493 0.000000
							}
						}
						JOINT HairRightC
						{
							OFFSET -14.792900 15.959702 2.901400
							CHANNELS 3 Xrotation Yrotation Zrotation
							End Site
							{
								OFFSET 0.000000 26.061493 0.000000
							}
						}
						JOINT HairRightD
						{
							OFFSET -15.174000 18.437195 -7.561900
							CHANNELS 3 Xrotation Yrotation Zrotation
							End Site
							{
								OFFSET 0.000000 26.061493 0.000000
							}
						}
						JOINT HairRightE
						{
							OFFSET -8.798200 17.914902 -18.322001
							CHANNELS 3 Xrotation Yrotation Zrotation
							End Site
							{
								OFFSET 0.000000 26.061493 0.000000
							}
						}
						JOINT HairRightF
						{
							OFFSET -10.275200 4.953506 -9.674099
							CHANNELS 3 Xrotation Yrotation Zrotation
							End Site
							{
								OFFSET 0.000000 26.061493 0.000000
							}
						}
					}
				}
				JOINT LeftShoulder
				{
					OFFSET 5.133500 7.341202 -1.867600
					CHANNELS 3 Xrotation Yrotation Zrotation
					JOINT LeftArm
					{
						OFFSET 8.072663 0.936867 -2.176600
						CHANNELS 3 Xrotation Yrotation Zrotation
						JOINT LeftForeArm
						{
							OFFSET 31.271999 0.000000 0.000000
							CHANNELS 3 Xrotation Yrotation Zrotation
							JOINT LeftHand
							{
								OFFSET 31.771030 0.000000 0.000000
								CHANNELS 3 Xrotation Yrotation Zrotation
								JOINT LeftHandThumb1
								{
									OFFSET 2.886520 -2.557846 4.416640
									CHANNELS 3 Xrotation Yrotation Zrotation
									JOINT LeftHandThumb2
									{
										OFFSET 2.371025 -1.368912 1.368911
										CHANNELS 3 Xrotation Yrotation Zrotation
										JOINT LeftHandThumb3
										{
											OFFSET 2.243378 -1.295212 1.295213
											CHANNELS 3 Xrotation Yrotation Zrotation
											End Site
											{
												OFFSET -0.332611 2.876945 0.020015
											}
										}
									}
								}
								JOINT LeftHandIndex1
								{
									OFFSET 8.568985 -0.641945 3.119977
									CHANNELS 3 Xrotation Yrotation Zrotation
									JOINT LeftHandIndex2
									{
										OFFSET 3.348503 0.000000 0.000000
										CHANNELS 3 Xrotation Yrotation Zrotation
										JOINT LeftHandIndex3
										{
											OFFSET 3.314552 0.000000 0.000000
											CHANNELS 3 Xrotation Yrotation Zrotation
											End Site
											{
												OFFSET -1.032898 3.075485 0.678796
											}
										}
									}
								}
								JOINT LeftHandMiddle1
								{
									OFFSET 8.124603 0.000000 0.000000
									CHANNELS 3 Xrotation Yrotation Zrotation
									JOINT LeftHandMiddle2
									{
										OFFSET 4.166275 0.000000 0.000000
										CHANNELS 3 Xrotation Yrotation Zrotation
										JOINT LeftHandMiddle3
										{
											OFFSET 3.018135 0.000000 0.000000
											CHANNELS 3 Xrotation Yrotation Zrotation
											End Site
											{
												OFFSET -1.032700 2.767982 0.617226
											}
										}
									}
								}
								JOINT LeftHandRing1
								{
									OFFSET 8.571686 -0.031357 -2.884048
									CHANNELS 3 Xrotation Yrotation Zrotation
									JOINT LeftHandRing2
									{
										OFFSET 3.671181 0.000000 0.000000
										CHANNELS 3 Xrotation Yrotation Zrotation
										JOINT LeftHandRing3
										{
											OFFSET 2.728851 0.000000 0.000000
											CHANNELS 3 Xrotation Yrotation Zrotation
											End Site
											{
												OFFSET -0.815796 2.539223 0.577389
											}
										}
									}
								}
								JOINT LeftHandPinky1
								{
									OFFSET 7.854515 -0.675232 -5.213020
									CHANNELS 3 Xrotation Yrotation Zrotation
									JOINT LeftHandPinky2
									{
										OFFSET 3.068596 0.000000 0.000000
										CHANNELS 3 Xrotation Yrotation Zrotation
										JOINT LeftHandPinky3
										{
											OFFSET 2.396042 0.000000 0.000000
											CHANNELS 3 Xrotation Yrotation Zrotation
											End Site
											{
												OFFSET -0.524597 2.267998 0.567429
											}
										}
									}
								}
							}
							JOINT LeftSleeve
							{
								OFFSET 19.684509 -0.200119 0.476146
								CHANNELS 3 Xrotation Yrotation Zrotation
								End Site
								{
									OFFSET -0.031017 25.731133 -0.002868
								}
							}
						}
					}
				}
				JOINT RightShoulder
				{
					OFFSET -4.395900 7.341202 -1.870200
					CHANNELS 3 Xrotation Yrotation Zrotation
					JOINT RightArm
					{
						OFFSET -8.071453 0.936867 -2.181100
						CHANNELS 3 Xrotation Yrotation Zrotation
						JOINT RightForeArm
						{
							OFFSET -31.272011 0.000000 0.000000
							CHANNELS 3 Xrotation Yrotation Zrotation
							JOINT RightHand
							{
								OFFSET -31.771019 0.000000 0.000000
								CHANNELS 3 Xrotation Yrotation Zrotation
								JOINT RightHandThumb1
								{
									OFFSET -2.886520 -2.557808 4.416626
									CHANNELS 3 Xrotation Yrotation Zrotation
									JOINT RightHandThumb2
									{
										OFFSET -2.371056 -1.368927 1.368928
										CHANNELS 3 Xrotation Yrotation Zrotation
										JOINT RightHandThumb3
										{
											OFFSET -2.243362 -1.295204 1.295206
											CHANNELS 3 Xrotation Yrotation Zrotation
											End Site
											{
												OFFSET 0.332642 2.876938 0.020047
											}
										}
									}
								}
								JOINT RightHandIndex1
								{
									OFFSET -8.568993 -0.641953 3.120017
									CHANNELS 3 Xrotation Yrotation Zrotation
									JOINT RightHandIndex2
									{
										OFFSET -3.348518 0.000000 0.000000
										CHANNELS 3 Xrotation Yrotation Zrotation
										JOINT RightHandIndex3
										{
											OFFSET -3.314552 0.000000 0.000000
											CHANNELS 3 Xrotation Yrotation Zrotation
											End Site
											{
												OFFSET 1.032898 3.075478 0.678804
											}
										}
									}
								}
								JOINT RightHandMiddle1
								{
									OFFSET -8.124588 0.000000 0.000000
									CHANNELS 3 Xrotation Yrotation Zrotation
									JOINT RightHandMiddle2
									{
										OFFSET -4.166275 0.000000 0.000000
										CHANNELS 3 Xrotation Yrotation Zrotation
										JOINT RightHandMiddle3
										{
											OFFSET -3.018097 0.000000 0.000000
											CHANNELS 3 Xrotation Yrotation Zrotation
											End Site
											{
												OFFSET 1.032700 2.767937 0.617197
											}
										}
									}
								}
								JOINT RightHandRing1
								{
									OFFSET -8.571747 -0.031349 -2.884061
									CHANNELS 3 Xrotation Yrotation Zrotation
									JOINT RightHandRing2
									{
										OFFSET -3.671204 0.000000 0.000000
										CHANNELS 3 Xrotation Yrotation Zrotation
										JOINT RightHandRing3
										{
											OFFSET -2.728874 0.000000 0.000000
											CHANNELS 3 Xrotation Yrotation Zrotation
											End Site
											{
												OFFSET 0.815804 2.539261 0.577413
											}
										}
									}
								}
								JOINT RightHandPinky1
								{
									OFFSET -7.854561 -0.675247 -5.212970
									CHANNELS 3 Xrotation Yrotation Zrotation
									JOINT RightHandPinky2
									{
										OFFSET -3.068550 0.000000 0.000000
										CHANNELS 3 Xrotation Yrotation Zrotation
										JOINT RightHandPinky3
										{
											OFFSET -2.395981 0.000000 0.000000
											CHANNELS 3 Xrotation Yrotation Zrotation
											End Site
											{
												OFFSET 0.524605 2.267952 0.567413
											}
										}
									}
								}
							}
							JOINT RightSleeve
							{
								OFFSET -19.684753 -0.200165 0.476065
								CHANNELS 3 Xrotation Yrotation Zrotation
								End Site
								{
									OFFSET 0.031342 25.731255 -0.002917
								}
							}
						}
					}
				}
				JOINT Hood
				{
					OFFSET 0.369700 14.447800 -5.317800
					CHANNELS 3 Xrotation Yrotation Zrotation
					JOINT Hood1
					{
						OFFSET 0.001700 -5.553802 -5.895100
						CHANNELS 3 Xrotation Yrotation Zrotation
						JOINT Hood2
						{
							OFFSET -0.000200 -8.380501 0.763600
							CHANNELS 3 Xrotation Yrotation Zrotation
							End Site
							{
								OFFSET 0.000000 8.415215 0.000000
							}
						}
					}
				}
				JOINT Left_Breast
				{
					OFFSET 5.682500 3.120102 3.188800
					CHANNELS 3 Xrotation Yrotation Zrotation
					End Site
					{
						OFFSET 0.000000 10.528564 0.000000
					}
				}
				JOINT Right_Breast
				{
					OFFSET -4.947600 3.120102 3.185900
					CHANNELS 3 Xrotation Yrotation Zrotation
					End Site
					{
						OFFSET 0.000000 10.528564 0.000000
					}
				}
				JOINT Whistle
				{
					OFFSET 0.368200 11.471298 0.095400
					CHANNELS 3 Xrotation Yrotation Zrotation
					JOINT Whistle1
					{
						OFFSET -0.002000 -6.349899 7.479800
						CHANNELS 3 Xrotation Yrotation Zrotation
						JOINT Whistle2
						{
							OFFSET -0.001300 -8.217598 4.717600
							CHANNELS 3 Xrotation Yrotation Zrotation
							End Site
							{
								OFFSET 0.000000 9.475479 0.000000
							}
						}
					}
				}
			}
		}
		JOINT Belly
		{
			OFFSET 0.212400 1.593002 3.163700
			CHANNELS 3 Xrotation Yrotation Zrotation
			End Site
			{
				OFFSET 0.000000 7.496635 0.000000
			}
		}
	}
	JOINT FitGrandmaFacialAnim_Joint
	{
		OFFSET 1.150000 -86.211197 -1.220100
		CHANNELS 3 Xrotation Yrotation Zrotation
		End Site
		{
			OFFSET 0.000000 31.666618 0.000000
		}
	}
}
MOTION
Frames: 4
Frame Time: 0.016667
-0.211146 110.610779 4.073092 3.765473 -37.648382 3.120309 0.000000 0.000002 -0.000000 -76.515583 -17.485890 32.431630 68.978565 2.254429 7.908833 4.915977 -1.452453 1.668218 0.000001 0.000001 -0.000002 -0.000000 0.000001 -0.000003 0.000000 -0.000000 0.000001 -114.643059 -42.832871 -0.267216 125.072061 19.360267 -13.231898 11.845980 -1.014244 24.345887 0.000000 0.000000 -0.000000 0.000001 -0.000000 -0.000002 -0.000000 -0.000003 -0.000005 31.623769 -4.302505 -10.280160 14.129385 0.964740 -3.082681 14.083555 0.916935 -3.297932 -8.677480 21.443456 -12.816593 -25.381087 13.620602 5.249200 0.000002 -0.000000 -0.000001 0.000002 -0.000000 -0.000001 0.000002 -0.000000 -0.000001 0.000002 -0.000000 -0.000001 0.000002 -0.000000 -0.000001 0.000002 -0.000000 -0.000001 0.000002 -0.000000 -0.000001 0.000002 -0.000000 -0.000001 0.000002 -0.000000 -0.000001 0.000002 -0.000000 -0.000001 0.000002 -0.000000 -0.000001 0.000002 -0.000000 -0.000001 0.000002 -0.000000 -0.000001 0.000002 -0.000000 -0.000001 0.000002 -0.000000 -0.000001 0.000002 -0.000000 -0.000001 0.000002 -0.000000 -0.000001 0.000002 -0.000000 -0.000001 0.000002 -0.000000 -0.000001 11.474083 -16.374154 4.408446 -62.668809 -4.844733 -3.758213 45.767633 -24.019397 29.511116 -12.970290 31.805944 18.858157 40.109948 -15.297144 -0.360408 5.639818 28.097621 11.338684 -0.000001 0.000002 -0.000002 6.882243 2.840033 -61.140425 8.247908 7.639958 -89.897966 0.000006 -0.000003 0.000002 -2.345503 4.688823 -62.655333 8.754116 9.897083 -87.051102 0.000000 -0.000002 0.000005 -9.042516 10.045658 -60.766315 8.524098 9.508843 -66.893097 -0.000002 0.000000 -0.000001 -17.946956 14.754918 -51.485812 8.868393 8.667023 -84.811968 0.000002 0.000001 -0.000001 -0.000001 0.000000 0.000002 18.189217 24.092147 -9.603785 -33.453129 6.374204 2.980958 -41.939240 39.311144 29.275895 -2.634153 7.017168 -19.613218 -1.525704 -5.490532 13.054249 1.517208 -22.702497 -8.022594 -0.000000 -0.000000 -0.000000 1.275679 4.855665 -8.441561 0.521787 0.316518 6.397940 0.000000 -0.000000 0.000001 0.863998 -5.171138 -11.645882 1.544693 -3.773590 21.274074 -0.000001 -0.000001 -0.000007 1.777552 -11.827268 -9.453300 1.762680 -2.960312 20.651842 0.000001 -0.000001 -0.000005 2.612860 -21.378200 -4.080157 5.314405 -1.204981 -0.000084 -0.000001 0.000003 0.000002 -0.000001 -0.000004 -0.000001 0.000001 -0.000002 0.000001 0.000001 -0.000002 0.000001 0.000001 -0.000002 0.000001 0.000001 -0.000002 0.000001 0.000001 -0.000002 0.000001 0.000001 -0.000002 0.000001 -0.000002 0.000000 -0.000000 -0.000002 0.000000 -0.000000 -0.000000 -0.000002 0.000001 0.000000 0.000002 -0.000000 
-0.219751 110.606361 4.062676 3.791698 -37.747710 3.171869 0.000000 0.000001 0.000000 -76.510584 -17.473197 32.449430 68.969584 2.186795 7.879039 4.933248 -1.326940 1.574407 -0.000001 -0.000000 0.000000 -0.000000 -0.000001 0.000003 0.000000 -0.000000 0.000001 -114.438611 -42.865926 -0.259277 124.961180 19.394964 -13.243976 11.702275 -1.031422 24.242448 -0.000000 -0.000000 -0.000001 0.000000 -0.000000 -0.000000 0.000003 -0.000002 0.000002 31.629636 -4.318057 -10.285213 14.124492 0.962686 -3.082691 14.081424 0.915145 -3.297786 -8.636852 21.467478 -12.828430 -25.291735 13.718662 5.212693 0.000001 -0.000001 -0.000001 0.000001 -0.000001 -0.000001 0.000001 -0.000001 -0.000001 0.000001 -0.000001 -0.000001 0.000001 -0.000001 -0.000001 0.000001 -0.000001 -0.000001 0.000001 -0.000001 -0.000001 0.000001 -0.000001 -0.000001 0.000001 -0.000001 -0.000001 0.000001 -0.000001 -0.000001 0.000001 -0.000001 -0.000001 0.000001 -0.000001 -0.000001 0.000001 -0.000001 -0.000001 0.000001 -0.000001 -0.000001 0.000001 -0.000001 -0.000001 0.000001 -0.000001 -0.000001 0.000001 -0.000001 -0.000001 0.000001 -0.000001 -0.000001 0.000001 -0.000001 -0.000001 11.372214 -16.443320 3.967061 -62.208065 -4.571391 -3.790332 45.710474 -23.896283 29.381223 -13.152794 31.668339 18.894675 40.109944 -15.297148 -0.360405 5.639819 28.097621 11.338683 0.000002 -0.000003 0.000001 6.882242 2.840035 -61.140418 8.247910 7.639955 -89.897959 -0.000002 -0.000004 0.000002 -2.345508 4.688822 -62.655333 8.754113 9.897082 -87.051102 -0.000001 0.000000 -0.000003 -9.042522 10.045654 -60.766315 8.524103 9.508840 -66.893090 -0.000001 -0.000000 0.000002 -17.946964 14.754920 -51.485816 8.868394 8.667023 -84.811975 -0.000000 0.000000 0.000001 -0.000000 -0.000001 -0.000003 18.029171 24.259184 -9.213509 -32.985538 6.584511 2.975914 -41.769783 39.073668 29.004689 -2.558816 7.327788 -19.065122 -1.525703 -5.490529 13.054252 1.517209 -22.702500 -8.022598 0.000000 0.000001 0.000004 1.264159 4.823531 -8.200510 0.528598 0.186443 7.355367 -0.000001 -0.000003 -0.000001 0.874211 -5.218022 -11.333222 1.587299 -3.878958 22.059954 0.000001 -0.000000 -0.000003 1.813552 -11.822567 -9.179921 1.792575 -3.024126 21.110291 -0.000000 0.000000 0.000001 2.626234 -21.407362 -3.836574 5.351736 -1.276969 0.651223 -0.000001 0.000001 -0.000003 -0.000001 0.000002 -0.000001 -0.000001 0.000002 -0.000001 -0.000001 0.000002 -0.000001 -0.000001 0.000002 -0.000001 -0.000001 0.000002 -0.000001 -0.000001 0.000002 -0.000001 -0.000001 0.000002 -0.000001 -0.000001 0.000001 -0.000001 -0.000001 0.000001 -0.000001 0.000000 -0.000001 0.000002 0.000000 0.000001 0.000000 
-0.229318 110.602524 4.050457 3.819065 -37.834699 3.225027 -0.000000 -0.000001 0.000000 -76.496056 -17.440695 32.454453 68.950391 2.156267 7.864691 4.863335 -1.237842 1.533189 -0.000001 -0.000000 -0.000001 0.000001 -0.000002 0.000003 -0.000000 -0.000000 -0.000000 -114.209779 -42.896382 -0.248454 124.851391 19.454727 -13.257030 11.528403 -1.052609 24.126694 0.000000 -0.000000 -0.000001 0.000002 -0.000000 -0.000001 -0.000001 -0.000001 -0.000002 31.622157 -4.333130 -10.286821 14.121955 0.959995 -3.082256 14.068812 0.912814 -3.297124 -8.610281 21.493195 -12.821318 -25.195729 13.750094 5.199517 -0.000001 -0.000000 -0.000001 -0.000001 -0.000000 -0.000001 -0.000001 -0.000000 -0.000001 -0.000001 -0.000000 -0.000001 -0.000001 -0.000000 -0.000001 -0.000001 -0.000000 -0.000001 -0.000001 -0.000000 -0.000001 -0.000001 -0.000000 -0.000001 -0.000001 -0.000000 -0.000001 -0.000001 -0.000000 -0.000001 -0.000001 -0.000000 -0.000001 -0.000001 -0.000000 -0.000001 -0.000001 -0.000000 -0.000001 -0.000001 -0.000000 -0.000001 -0.000001 -0.000000 -0.000001 -0.000001 -0.000000 -0.000001 -0.000001 -0.000000 -0.000001 -0.000001 -0.000000 -0.000001 -0.000001 -0.000000 -0.000001 11.267124 -16.494263 3.552186 -61.836380 -4.277153 -3.867881 45.655286 -23.778486 29.256671 -13.315534 31.475083 18.907547 40.109948 -15.297146 -0.360407 5.639815 28.097628 11.338679 0.000000 -0.000002 0.000002 6.882240 2.840034 -61.140425 8.247906 7.639953 -89.897966 0.000003 -0.000002 0.000002 -2.345504 4.688823 -62.655333 8.754113 9.897093 -87.051096 -0.000001 0.000000 -0.000001 -9.042518 10.045654 -60.766322 8.524101 9.508841 -66.893097 -0.000004 0.000000 -0.000003 -17.946966 14.754918 -51.485812 8.868390 8.667017 -84.811968 0.000002 -0.000003 0.000000 0.000002 0.000001 -0.000000 17.871463 24.380044 -8.840631 -32.509692 6.730322 2.966672 -41.608068 38.845147 28.745698 -2.194471 7.735462 -18.572640 -1.525702 -5.490530 13.054250 1.517212 -22.702490 -8.022587 0.000000 0.000002 -0.000002 1.252744 4.791383 -7.959524 0.537555 0.056531 8.312893 -0.000001 -0.000000 0.000003 0.884686 -5.264791 -11.020559 1.631341 -3.983809 22.846009 -0.000001 -0.000000 -0.000005 1.849479 -11.817703 -8.906599 1.822948 -3.087671 21.568785 -0.000000 -0.000002 0.000000 2.639517 -21.436441 -3.593019 5.390297 -1.348508 1.586686 -0.000003 0.000000 -0.000000 -0.000001 -0.000000 0.000005 0.000001 0.000000 -0.000001 0.000001 0.000000 -0.000001 0.000001 0.000000 -0.000001 0.000001 0.000000 -0.000001 0.000001 0.000000 -0.000001 0.000001 0.000000 -0.000002 0.000002 -0.000000 0.000002 0.000002 -0.000000 0.000002 -0.000000 -0.000000 -0.000001 -0.000000 -0.000001 0.000000 
-0.236773 110.597931 4.040912 3.847501 -37.901488 3.275295 -0.000000 -0.000000 -0.000000 -76.469985 -17.414699 32.465522 68.902293 2.137610 7.859360 4.851322 -1.188528 1.454856 0.000000 -0.000001 -0.000000 -0.000000 0.000001 -0.000001 -0.000000 0.000001 0.000001 -113.972587 -42.914342 -0.228927 124.736917 19.484095 -13.269173 11.358377 -1.078327 24.063253 0.000000 -0.000000 -0.000003 0.000001 -0.000000 -0.000001 0.000001 0.000001 -0.000000 31.609176 -4.344586 -10.285670 14.106494 0.954759 -3.080993 14.049173 0.908809 -3.295744 -8.563389 21.515695 -12.819795 -25.070496 13.794746 5.150474 0.000002 0.000000 -0.000001 0.000002 0.000000 -0.000001 0.000002 0.000000 -0.000001 0.000002 0.000000 -0.000001 0.000002 0.000000 -0.000001 0.000002 0.000000 -0.000001 0.000002 0.000000 -0.000001 0.000002 0.000000 -0.000001 0.000002 0.000000 -0.000001 0.000002 0.000000 -0.000001 0.000002 0.000000 -0.000001 0.000002 0.000000 -0.000001 0.000002 0.000000 -0.000001 0.000002 0.000000 -0.000001 0.000002 0.000000 -0.000001 0.000002 0.000000 -0.000001 0.000002 0.000000 -0.000001 0.000002 0.000000 -0.000001 0.000002 0.000000 -0.000001 11.178829 -16.526066 3.162656 -61.569449 -3.861273 -3.799264 45.619721 -23.701738 29.176943 -13.445406 31.206359 18.883637 40.109941 -15.297146 -0.360407 5.639815 28.097624 11.338683 0.000002 -0.000004 -0.000000 6.882240 2.840033 -61.140418 8.247908 7.639956 -89.897966 0.000002 0.000001 -0.000003 -2.345506 4.688822 -62.655327 8.754108 9.897086 -87.051096 0.000005 -0.000002 0.000002 -9.042524 10.045655 -60.766315 8.524105 9.508843 -66.893090 -0.000002 0.000001 0.000001 -17.946961 14.754914 -51.485816 8.868393 8.667022 -84.811968 -0.000000 0.000000 -0.000001 0.000000 0.000002 0.000000 17.715211 24.468463 -8.495867 -32.128865 6.751243 2.910645 -41.451397 38.621376 28.494041 -1.622674 7.766577 -18.155254 -1.525703 -5.490529 13.054255 1.517208 -22.702499 -8.022599 0.000001 -0.000000 0.000001 1.241611 4.759407 -7.720692 0.548536 -0.072042 9.261822 0.000000 -0.000003 0.000001 0.895325 -5.311143 -10.710605 1.676467 -4.087040 23.625259 -0.000001 0.000001 -0.000001 1.885085 -11.812656 -8.635661 1.853582 -3.150459 22.023211 0.000001 0.000000 -0.000000 2.652747 -21.465171 -3.351519 5.429581 -1.418820 2.513892 0.000001 0.000001 0.000003 -0.000000 0.000002 0.000003 -0.000000 0.000000 0.000002 -0.000000 0.000000 0.000002 -0.000000 0.000000 0.000002 -0.000000 0.000000 0.000002 -0.000000 0.000000 0.000002 -0.000000 -0.000000 0.000002 -0.000001 0.000001 -0.000002 -0.000001 0.000001 -0.000002 0.000000 -0.000002 0.000003 -0.000000 -0.000000 -0.000000 
